<svg width="48" height="48" viewBox="0 0 48 48" fill="none" xmlns="http://www.w3.org/2000/svg">
<path d="M37.3385 43.3981C35.3105 43.3981 33.6846 42.8143 32.4607 41.6467C31.2369 40.4791 30.625 39.0102 30.625 37.2399C30.625 35.432 31.2369 33.9443 32.4607 32.7767C33.6846 31.5714 35.3105 30.9688 37.3385 30.9688C39.3316 30.9688 40.9401 31.5714 42.1639 32.7767C43.3877 33.9443 43.9996 35.432 43.9996 37.2399C43.9996 39.0102 43.3877 40.4791 42.1639 41.6467C40.9401 42.8143 39.3316 43.3981 37.3385 43.3981Z" fill="#6D96EB"/>
<path d="M30.2248 4V13.9435H15.6438V19.4802H26.1337V28.9153H15.6438V44H4V4H30.2248Z" fill="#6D96EB"/>
</svg>
